<svg width="149" height="59" viewBox="0 0 149 59" fill="none" xmlns="http://www.w3.org/2000/svg">
<g clip-path="url(#clip0)">
<path d="M50.7857 28.7196H60.3264L66.5698 50.3373H59.1947L58.3753 46.1816H52.7758L51.8978 50.3373H44.835L50.7857 28.7196ZM57.6339 42.3185L55.6048 32.8754L53.4586 42.3185H57.6339ZM76.3055 50.8446C73.3594 50.8446 70.8621 50.2983 68.833 49.2057L70.3938 44.3281C72.5595 45.1085 74.4715 45.4987 76.169 45.4987C77.086 45.4987 77.7688 45.4012 78.1786 45.1865C78.6273 44.9524 78.8419 44.6207 78.8419 44.172C78.8419 43.8793 78.7248 43.6257 78.4907 43.4111C78.2566 43.177 77.8078 42.9233 77.1055 42.6502C76.4226 42.377 75.369 42.0453 74.0033 41.6356C72.3059 41.1283 70.9791 40.3089 70.0426 39.1773C69.1061 38.0262 68.6379 36.6994 68.6379 35.2166C68.6379 32.9144 69.3988 31.1779 70.9011 30.0073C72.4229 28.8172 74.491 28.2123 77.0664 28.2123C78.4127 28.2123 79.7199 28.3684 81.0271 28.6611C82.3343 28.9342 83.4854 29.344 84.4805 29.8902L82.783 34.6313C81.6124 34.2411 80.5784 33.9485 79.7004 33.7924C78.8419 33.5973 78.003 33.5192 77.1835 33.5192C75.7983 33.5192 75.1154 33.8899 75.1154 34.6508C75.1154 35.0215 75.33 35.3532 75.7787 35.6264C76.247 35.88 77.164 36.2117 78.5688 36.6019C80.7735 37.1872 82.4319 38.0847 83.5635 39.2943C84.6951 40.4845 85.2609 41.9283 85.2609 43.6062C85.2609 45.9279 84.5 47.7229 82.9977 48.9716C81.4953 50.2203 79.2516 50.8446 76.3055 50.8446ZM92.5188 33.4997H88.0314V28.7196H104.342V33.4997H99.8548V50.3373H92.5383V33.4997H92.5188ZM108.225 28.7196H123.404V33.4997H115.873V37.4213H122.76V41.382H115.873V45.5572H123.404V50.3373H108.225V28.7196ZM127.852 28.7196H134.174L142.778 40.3674V28.7196H148.397V50.3373H142.115L133.452 39.0992V50.3373H127.852V28.7196Z" fill="#28A745"/>
<path d="M27.7046 44.4452V42.338H26.2023C26.1048 41.6357 25.9097 40.9723 25.656 40.3284L26.9632 39.5675L25.9097 37.7531L24.583 38.514C24.1537 37.9677 23.6464 37.4799 23.1001 37.0897L23.8806 35.7435L22.0661 34.6899L21.2857 36.0361C20.6613 35.7825 19.998 35.6069 19.2956 35.5288V33.9485H17.208V35.5288C16.5056 35.6069 15.8617 35.802 15.2569 36.0556L14.457 34.6704L12.6425 35.724L13.4424 37.1092C12.9156 37.5384 12.4279 38.0067 12.0181 38.5335L10.6524 37.7335L9.59882 39.548L10.9646 40.348C10.7109 40.9528 10.5158 41.6357 10.4378 42.299H8.85742V44.4062H10.4183C10.4963 45.1085 10.6719 45.7719 10.9255 46.3767L9.59882 47.1376L10.6524 48.9521L11.9596 48.1912C12.3888 48.7375 12.8571 49.2448 13.4229 49.674L12.662 50.9617L14.4765 52.0153L15.2179 50.7276C15.8422 51.0007 16.5251 51.1958 17.247 51.2739V52.7567H19.3151V51.3129C20.037 51.2349 20.7003 51.0398 21.3637 50.7861L22.0856 52.0348L23.9001 50.9812L23.1782 49.7325C23.744 49.3033 24.2318 48.796 24.6805 48.2302L25.9292 48.9521L26.9828 47.1376L25.7146 46.3962C25.9682 45.7719 26.1633 45.0695 26.2414 44.3671L27.7046 44.4452ZM18.3005 46.2597C16.7397 46.2597 15.4715 44.9915 15.4715 43.4306C15.4715 41.8698 16.7397 40.6016 18.3005 40.6016C19.8614 40.6016 21.1296 41.8698 21.1296 43.4306C21.1296 45.0305 19.8614 46.2597 18.3005 46.2597Z" fill="#28A745"/>
<path d="M51.5671 58.922H50.494V56.7759C50.494 56.5417 50.4745 56.3661 50.4159 56.21C50.3769 56.054 50.2599 55.9174 50.1038 55.8198C49.9477 55.7223 49.7331 55.6637 49.4599 55.6052C49.1868 55.5662 48.8161 55.5467 48.3673 55.5467C47.8601 55.5467 47.4503 55.5662 47.1382 55.6247C46.826 55.6637 46.5724 55.7418 46.3773 55.8393C46.2017 55.9174 46.0651 56.0344 45.987 56.1515C45.909 56.2686 45.8895 56.4247 45.8895 56.5612V58.9025H44.8164V55.1175H45.8895V55.7223C45.8895 55.7223 45.909 55.7028 45.948 55.6637C45.987 55.6247 46.0261 55.5857 46.1041 55.5272C46.1821 55.4686 46.2797 55.4101 46.4163 55.3516C46.5528 55.293 46.7284 55.2345 46.9235 55.1955C47.1382 55.137 47.3918 55.0979 47.6845 55.0784C47.9771 55.0394 48.3283 55.0199 48.738 55.0199C49.1282 55.0199 49.4794 55.0394 49.7721 55.0589C50.0648 55.0784 50.3184 55.137 50.533 55.1955C50.7476 55.254 50.9037 55.3321 51.0403 55.4101C51.1769 55.4882 51.2744 55.5857 51.3525 55.7028C51.411 55.6442 51.5085 55.5662 51.6451 55.4882C51.7817 55.4101 51.9573 55.3321 52.1914 55.254C52.4255 55.176 52.7377 55.1174 53.0889 55.0784C53.4401 55.0199 53.8888 55.0004 54.3961 55.0004C54.8253 55.0004 55.1765 55.0199 55.4887 55.0589C55.8009 55.0979 56.0545 55.137 56.2691 55.215C56.4837 55.2735 56.6398 55.3711 56.7764 55.4686C56.913 55.5662 57.0105 55.6833 57.0691 55.8198C57.1471 55.9564 57.1861 56.093 57.2056 56.2491C57.2251 56.4051 57.2446 56.5807 57.2446 56.7759V58.922H56.1716V56.7759C56.1716 56.5417 56.1521 56.3661 56.0935 56.21C56.0545 56.054 55.9374 55.9174 55.7814 55.8198C55.6253 55.7223 55.4107 55.6637 55.1375 55.6052C54.8644 55.5662 54.4937 55.5467 54.0449 55.5467C53.5376 55.5467 53.1279 55.5662 52.8157 55.6247C52.5036 55.6637 52.2499 55.7418 52.0548 55.8393C51.8792 55.9174 51.7427 56.0344 51.6646 56.1515C51.5866 56.2686 51.5671 56.4247 51.5671 56.5612V58.922ZM78.2575 59.0001C77.5552 59.0001 76.9503 58.9805 76.4431 58.922C75.9553 58.8635 75.5456 58.7659 75.2334 58.6098C74.9212 58.4733 74.7066 58.2782 74.5505 58.044C74.414 57.8099 74.3359 57.4977 74.3359 57.1465C74.3359 56.7368 74.414 56.3856 74.5505 56.1125C74.6871 55.8393 74.9212 55.6247 75.2334 55.4686C75.5456 55.3126 75.9553 55.1955 76.4431 55.137C76.9308 55.0784 77.5357 55.0394 78.2575 55.0394C78.7648 55.0394 79.1941 55.0589 79.5648 55.0979C79.9355 55.137 80.2476 55.1955 80.5208 55.293C80.7939 55.3711 81.0085 55.4686 81.1646 55.5857C81.3402 55.7028 81.4573 55.8198 81.5548 55.9564C81.6524 56.093 81.7109 56.2296 81.7499 56.4052C81.789 56.5807 81.8085 56.7563 81.8085 56.9514L81.7109 57.1661H75.409C75.409 57.4587 75.448 57.6928 75.5456 57.888C75.6431 58.0636 75.7992 58.2001 76.0138 58.2977C76.2284 58.3757 76.5211 58.4343 76.8918 58.4538C77.2625 58.4733 77.6917 58.4928 78.238 58.4928C78.7258 58.4928 79.1355 58.4928 79.4477 58.4733C79.7599 58.4538 80.033 58.4147 80.2086 58.3757C80.4037 58.3367 80.5208 58.2587 80.5988 58.1806C80.6769 58.1026 80.7159 57.9855 80.7159 57.8489H81.789C81.789 58.044 81.7304 58.2196 81.6134 58.3757C81.4963 58.5123 81.3012 58.6294 81.028 58.7269C80.7549 58.8245 80.3842 58.883 79.9355 58.922C79.4867 58.9805 78.9209 59.0001 78.2575 59.0001ZM78.2575 55.5662C77.9064 55.5662 77.5942 55.5662 77.3015 55.5857C77.0284 55.5857 76.7747 55.6052 76.5796 55.6442C76.365 55.6637 76.1894 55.7223 76.0528 55.7808C75.8968 55.8393 75.7797 55.8979 75.7017 55.9759C75.6041 56.054 75.5456 56.1515 75.5066 56.2881C75.4675 56.4247 75.448 56.5807 75.448 56.7759H80.7744C80.7744 56.5222 80.7354 56.3271 80.6378 56.171C80.5403 56.0149 80.4037 55.8979 80.2086 55.8003C80.0135 55.7028 79.7599 55.6442 79.4477 55.6052C79.077 55.5662 78.7063 55.5662 78.2575 55.5662ZM105.299 57.2441C105.299 57.5758 105.26 57.8294 105.163 58.044C105.065 58.2587 104.929 58.4343 104.714 58.5513C104.499 58.6879 104.226 58.7659 103.894 58.8245C103.563 58.883 103.134 58.9025 102.646 58.9025C102.158 58.9025 101.748 58.883 101.436 58.844C101.104 58.805 100.851 58.7269 100.636 58.6294C100.441 58.5318 100.285 58.3757 100.207 58.2001C100.109 58.0245 100.07 57.8099 100.07 57.5368V55.6442H98.7632V55.1175H100.07V54.0834H101.143V55.1175H105.143V55.6442H101.143V57.5368C101.143 57.7514 101.163 57.9075 101.222 58.0245C101.28 58.1416 101.358 58.2196 101.475 58.2782C101.592 58.3367 101.748 58.3562 101.943 58.3757C102.139 58.3757 102.373 58.3952 102.665 58.3952C102.88 58.3952 103.075 58.3952 103.251 58.3952C103.426 58.3952 103.582 58.3757 103.719 58.3562C103.855 58.3367 103.972 58.2977 104.051 58.2587C104.148 58.2196 104.226 58.1416 104.265 58.0635C104.324 57.9855 104.363 57.8684 104.402 57.7319C104.421 57.5953 104.441 57.4392 104.441 57.2441H105.299ZM128.595 58.3952C128.575 58.4147 128.497 58.4928 128.341 58.5903C128.224 58.6684 128.088 58.7464 127.892 58.8049C127.717 58.8635 127.463 58.9025 127.151 58.9415C126.839 58.9805 126.449 59.0001 125.941 59.0001C125.278 59.0001 124.693 58.9805 124.224 58.9415C123.756 58.9025 123.366 58.844 123.073 58.7659C122.781 58.6879 122.547 58.5708 122.41 58.4342C122.273 58.2977 122.195 58.1416 122.195 57.966C122.195 57.7709 122.234 57.6148 122.312 57.4782C122.39 57.3417 122.508 57.2246 122.644 57.1465C122.8 57.049 122.976 56.9905 123.171 56.9319C123.386 56.8734 123.62 56.8344 123.873 56.8149C124.146 56.7954 124.42 56.7758 124.751 56.7563C125.063 56.7563 125.395 56.7368 125.746 56.7368C126.254 56.7368 126.683 56.7563 127.014 56.7759C127.346 56.7954 127.639 56.8344 127.853 56.8734C128.068 56.9124 128.244 56.9514 128.341 56.9905C128.458 57.0295 128.536 57.0685 128.575 57.1075C128.575 56.8539 128.556 56.6588 128.517 56.4832C128.478 56.3076 128.419 56.171 128.341 56.054C128.263 55.9369 128.166 55.8393 128.029 55.7808C127.912 55.7028 127.756 55.6637 127.561 55.6247C127.385 55.5857 127.171 55.5662 126.917 55.5662C126.683 55.5467 126.39 55.5467 126.078 55.5467C125.59 55.5467 125.18 55.5467 124.868 55.5662C124.556 55.5857 124.283 55.6052 124.107 55.6442C123.912 55.6833 123.795 55.7418 123.717 55.8198C123.639 55.8979 123.6 55.9954 123.6 56.1125H122.527C122.527 55.9174 122.586 55.7418 122.703 55.6052C122.82 55.4686 123.015 55.3516 123.307 55.2735C123.581 55.1955 123.951 55.1174 124.4 55.0784C124.849 55.0394 125.415 55.0199 126.078 55.0199C126.722 55.0199 127.268 55.0589 127.736 55.1175C128.185 55.176 128.556 55.293 128.829 55.4491C129.102 55.6052 129.317 55.8198 129.434 56.093C129.551 56.3661 129.629 56.6978 129.629 57.127V58.922H128.556V58.3952H128.595ZM126.137 58.4928C126.605 58.4928 126.995 58.4733 127.307 58.4538C127.619 58.4343 127.873 58.3952 128.068 58.3367C128.263 58.2782 128.4 58.2196 128.478 58.1416C128.556 58.0635 128.595 57.966 128.595 57.8684C128.595 57.7709 128.556 57.6733 128.458 57.5953C128.361 57.5173 128.205 57.4587 127.99 57.4197C127.775 57.3807 127.483 57.3417 127.112 57.3221C126.741 57.3026 126.312 57.2831 125.766 57.2831C125.239 57.2831 124.81 57.2831 124.478 57.3026C124.146 57.3221 123.893 57.3417 123.717 57.3807C123.542 57.4197 123.425 57.4782 123.366 57.5563C123.307 57.6343 123.268 57.7319 123.268 57.8684C123.268 58.005 123.307 58.1026 123.366 58.2001C123.425 58.2782 123.561 58.3367 123.756 58.3952C123.951 58.4342 124.244 58.4733 124.615 58.4928C125.005 58.4928 125.512 58.4928 126.137 58.4928ZM147.325 53.8688H148.398V58.922H147.325V53.8688Z" fill="#28A745"/>
<path d="M10.8284 34.7289V22.3982L0 33.9875V58.922H10.8284V52.0543C8.25298 49.8496 6.65311 46.5328 6.80919 42.9233C6.92626 39.6651 8.46759 36.7385 10.8284 34.7289Z" fill="#28A745"/>
<path d="M12.584 11.5893V33.4802C14.2619 32.5046 16.213 31.9388 18.2811 31.9388C20.1346 31.9388 21.8905 32.3876 23.4124 33.1875V22.3786V0L12.584 11.5893Z" fill="#28A745"/>
<path d="M18.2031 54.8443C16.1544 54.8247 14.2424 54.2784 12.6035 53.3029V58.922H23.4319V53.5956C21.8515 54.3955 20.0761 54.8638 18.2031 54.8443Z" fill="#28A745"/>
<path d="M25.0713 14.0476V34.2215C27.7247 36.2116 29.5002 39.2748 29.7148 42.6891C29.9489 46.6108 28.0759 50.2788 25.0713 52.5225V54.2199V58.9219H35.8997V57.7513V54.2589V51.7811V31.1389V25.6564L25.0713 14.0476Z" fill="#28A745"/>
</g>
<defs>
<clipPath id="clip0">
<rect width="148.397" height="59" fill="white"/>
</clipPath>
</defs>
</svg>
