<?xml version="1.0" encoding="utf-8"?>
<!-- Generator: Adobe Illustrator 16.2.0, SVG Export Plug-In . SVG Version: 6.00 Build 0)  -->
<!DOCTYPE svg PUBLIC "-//W3C//DTD SVG 1.1//EN" "http://www.w3.org/Graphics/SVG/1.1/DTD/svg11.dtd">
<svg version="1.1" id="Слой_1" xmlns="http://www.w3.org/2000/svg" xmlns:xlink="http://www.w3.org/1999/xlink" x="0px" y="0px"
	 width="25px" height="25px" viewBox="0 0 25 25" enable-background="new 0 0 25 25" xml:space="preserve">
<path fill="#FFFFFF" d="M12.5,22.58c5.566,0,10.08-4.514,10.08-10.08c0-5.567-4.514-10.08-10.08-10.08
	C6.933,2.42,2.42,6.933,2.42,12.5C2.42,18.066,6.933,22.58,12.5,22.58z M24.5,12.5c0,6.628-5.372,12-12,12c-6.627,0-12-5.372-12-12
	c0-6.627,5.373-12,12-12C19.128,0.5,24.5,5.873,24.5,12.5z M13.217,19.591h-2.66v-6.273h-1.33v-2.162h1.33V9.857
	c0-1.763,0.75-2.813,2.883-2.813h1.775v2.163h-1.109c-0.83,0-0.886,0.302-0.886,0.866l-0.004,1.082h2.012l-0.235,2.162h-1.776
	L13.217,19.591z"/>
</svg>
