<?xml version="1.0" encoding="utf-8"?>
<!-- Generator: Adobe Illustrator 16.2.0, SVG Export Plug-In . SVG Version: 6.00 Build 0)  -->
<!DOCTYPE svg PUBLIC "-//W3C//DTD SVG 1.1//EN" "http://www.w3.org/Graphics/SVG/1.1/DTD/svg11.dtd">
<svg version="1.1" id="Слой_1" xmlns="http://www.w3.org/2000/svg" xmlns:xlink="http://www.w3.org/1999/xlink" x="0px" y="0px"
	 width="25px" height="25px" viewBox="0 0 25 25" enable-background="new 0 0 25 25" xml:space="preserve">
<path fill="#FFFFFF" d="M12.5,2.42c5.515,0,10.08,4.566,10.08,10.08c0,5.515-4.565,10.08-10.08,10.08
	c-5.514,0-10.08-4.565-10.08-10.08C2.42,6.986,6.986,2.42,12.5,2.42z M12.5,0.5c-6.627,0-12,5.373-12,12c0,6.626,5.373,12,12,12
	s12-5.374,12-12C24.5,5.873,19.127,0.5,12.5,0.5z M12.5,7.582c1.602,0,1.793,0.006,2.425,0.035c1.627,0.074,2.385,0.845,2.46,2.459
	c0.027,0.633,0.034,0.822,0.034,2.424s-0.007,1.793-0.034,2.425c-0.075,1.612-0.832,2.385-2.46,2.46
	c-0.632,0.027-0.821,0.034-2.425,0.034c-1.602,0-1.792-0.007-2.424-0.034c-1.63-0.075-2.385-0.85-2.46-2.46
	c-0.028-0.632-0.035-0.823-0.035-2.425s0.007-1.792,0.035-2.424c0.074-1.615,0.832-2.386,2.46-2.46
	C10.708,7.587,10.898,7.582,12.5,7.582z M12.5,6.5c-1.63,0-1.833,0.007-2.474,0.037c-2.18,0.1-3.39,1.309-3.49,3.489
	C6.507,10.667,6.5,10.871,6.5,12.5s0.007,1.834,0.036,2.474c0.1,2.18,1.31,3.391,3.49,3.491C10.667,18.492,10.87,18.5,12.5,18.5
	c1.629,0,1.834-0.008,2.475-0.035c2.177-0.101,3.392-1.31,3.49-3.491c0.027-0.64,0.035-0.845,0.035-2.474s-0.008-1.833-0.035-2.474
	c-0.099-2.177-1.31-3.39-3.49-3.489C14.334,6.507,14.129,6.5,12.5,6.5z M12.5,9.419c-1.701,0-3.081,1.379-3.081,3.081
	s1.38,3.081,3.081,3.081c1.7,0,3.081-1.379,3.081-3.081C15.581,10.799,14.2,9.419,12.5,9.419z M12.5,14.501
	c-1.105,0-2-0.896-2-2.001c0-1.104,0.895-2,2-2c1.104,0,2.001,0.895,2.001,2C14.501,13.604,13.604,14.501,12.5,14.501z
	 M15.702,8.578c-0.397,0-0.72,0.322-0.72,0.72c0,0.397,0.321,0.72,0.72,0.72c0.397,0,0.721-0.322,0.721-0.72
	S16.101,8.578,15.702,8.578z"/>
</svg>
