<?xml version="1.0" encoding="utf-8"?>
<!-- Generator: Adobe Illustrator 16.2.0, SVG Export Plug-In . SVG Version: 6.00 Build 0)  -->
<!DOCTYPE svg PUBLIC "-//W3C//DTD SVG 1.1//EN" "http://www.w3.org/Graphics/SVG/1.1/DTD/svg11.dtd">
<svg version="1.1" id="Слой_1" xmlns="http://www.w3.org/2000/svg" xmlns:xlink="http://www.w3.org/1999/xlink" x="0px" y="0px"
	 width="25px" height="25px" viewBox="0 0 25 25" enable-background="new 0 0 25 25" xml:space="preserve">
<path fill="#FFFFFF" d="M12.5,22.58c5.566,0,10.08-4.514,10.08-10.08c0-5.567-4.514-10.08-10.08-10.08
	C6.933,2.42,2.42,6.933,2.42,12.5C2.42,18.066,6.933,22.58,12.5,22.58z M24.5,12.5c0,6.628-5.372,12-12,12c-6.627,0-12-5.372-12-12
	c0-6.627,5.373-12,12-12C19.128,0.5,24.5,5.873,24.5,12.5z M17.151,9.688c0.484-0.307,0.857-0.792,1.032-1.371
	c-0.454,0.284-0.957,0.49-1.493,0.602c-0.428-0.482-1.038-0.784-1.715-0.784c-1.298,0-2.349,1.11-2.349,2.479
	c0,0.194,0.02,0.384,0.06,0.564c-1.952-0.103-3.684-1.089-4.844-2.589C7.641,8.957,7.525,9.382,7.525,9.836
	c0,0.859,0.415,1.618,1.045,2.063c-0.385-0.013-0.748-0.125-1.065-0.31v0.031c0,1.201,0.81,2.204,1.886,2.431
	c-0.197,0.058-0.404,0.086-0.62,0.086c-0.151,0-0.299-0.015-0.441-0.043c0.298,0.984,1.166,1.7,2.195,1.721
	c-0.805,0.664-1.818,1.06-2.919,1.06c-0.189,0-0.377-0.009-0.561-0.033c1.041,0.703,2.275,1.113,3.603,1.113
	c4.324,0,6.686-3.776,6.686-7.052c0-0.107-0.002-0.215-0.006-0.32c0.459-0.35,0.858-0.787,1.172-1.284
	C18.078,9.495,17.625,9.629,17.151,9.688z"/>
</svg>
